PathFileType	4	(X/Y/Z)	C:\Users\WrightLab\Desktop\Jo\P3_10.trc
DataRate	CameraRate	NumFrames	NumMarkers	Units	OrigDataRate	OrigDataStartFrame	OrigNumFrames
100.00	100.00	       7	19	mm	100.00	80	       633
Frame#	Time	Headset_Front			Headset_Back			Headset_Left			Headset_Right			Left_Shoulder			Right_Shoulder			Sternum			C7			Left Elbow			Right Elbow			Left Wrist			Right Wrist			Left ASIS			Right ASIS			S2			Left Knee			Right Knee			Left Ankle			Right Ankle			
		X1	Y1	Z1	X2	Y2	Z2	X3	Y3	Z3	X4	Y4	Z4	X5	Y5	Z5	X6	Y6	Z6	X7	Y7	Z7	X8	Y8	Z8	X9	Y9	Z9	X10	Y10	Z10	X11	Y11	Z11	X12	Y12	Z12	X13	Y13	Z13	X14	Y14	Z14	X15	Y15	Z15	X16	Y16	Z16	X17	Y17	Z17	X18	Y18	Z18	X19	Y19	Z19	

80	0.790	-477.05594	1565.62427	-1245.17786							-581.68103	1495.77124	-1063.25671	-282.00305	1290.43970	-1145.13464	-628.63904	1320.03174	-1241.72205	-490.43674	1184.10852	-1073.27686				-228.55998	956.05707	-1124.62329	-717.56189	982.13153	-1298.12439	-264.46951	783.97168	-1008.90887	-768.76794	798.14349	-1170.06458	-394.08115	835.48260	-1066.97180							-397.19952	413.21744	-1091.53796	-639.96454	398.04407	-1122.32556				-405.53033	83.35483	-1133.33704	
81	0.800	-478.59119	1566.44434	-1236.98340							-582.58490	1495.95837	-1054.96545	-283.90527	1291.64551	-1138.44910	-629.72870	1320.75073	-1235.38770	-491.61261	1185.42859	-1066.70972				-229.53212	957.23926	-1113.38892	-719.07642	982.57886	-1291.22241	-265.73911	787.46936	-996.77527	-770.87726	800.61340	-1160.88379	-394.99451	835.89020	-1060.18127	-452.49274	910.05975	-1304.24097	-634.08826	832.05951	-1134.13879	-396.91013	413.30911	-1086.00977	-643.75458	401.70074	-1105.54175				-405.77338	83.02948	-1133.01965	
82	0.810	-480.05411	1567.79077	-1229.11572	-447.24686	1359.10388	-1227.77026				-583.43365	1496.17017	-1046.86487	-284.80917	1291.71338	-1128.84827	-630.39386	1321.83984	-1228.19275	-492.83688	1185.65588	-1059.20300				-231.23949	960.74884	-1106.66309	-720.36475	983.01453	-1283.54712	-266.44553	790.20844	-984.71295	-772.16388	801.98151	-1149.55115	-396.59653	836.14771	-1052.65442	-453.87262	910.75269	-1296.93311				-397.50998	413.15588	-1086.18359	-647.73602	406.43109	-1089.58398				-405.36157	83.18156	-1132.61682	
83	0.820	-481.55392	1568.50745	-1220.77246							-584.67352	1495.90198	-1038.70557	-286.20074	1292.14246	-1120.29211	-631.99982	1322.10364	-1221.55737	-494.65097	1186.55237	-1052.34814				-232.18121	961.52740	-1095.11829	-721.63629	983.21075	-1275.63696	-268.11673	792.72455	-974.28821	-773.33484	804.59399	-1141.21057	-397.33929	836.56689	-1044.78064	-635.67944	836.16510	-1118.18347				-396.70374	413.35886	-1083.53418	-651.36224	409.46414	-1073.34668				-405.61816	83.21976	-1132.40393	
84	0.830	-482.99197	1569.40540	-1212.44031	-449.67169	1364.22668	-1221.74548				-585.83783	1496.17261	-1031.35974	-287.66211	1292.93982	-1112.82312	-632.87787	1321.54712	-1213.94043	-495.42007	1187.16711	-1045.01428				-233.03809	962.13892	-1083.93567	-722.71570	983.61896	-1268.08606	-268.44067	795.73901	-961.60187	-776.46814	807.14612	-1131.03979	-397.85379	836.76337	-1038.64563	-635.40314	836.16071	-1111.18762				-397.14777	412.94272	-1079.99939	-654.04309	413.63901	-1057.98340				-405.48645	83.78789	-1131.65161	
85	0.840	-484.48544	1570.05933	-1204.78601	-450.96188	1364.65735	-1214.43640				-587.02844	1496.32520	-1023.82446	-288.99466	1294.83594	-1108.74292	-634.70752	1321.99231	-1206.45288	-495.95093	1187.46375	-1038.63660				-233.74365	962.75983	-1073.29138	-723.97845	983.44049	-1260.14502	-269.84592	798.44031	-950.27032	-778.16406	809.36176	-1120.45740	-398.52591	837.33228	-1029.59399	-458.72592	911.93036	-1275.34497				-398.36868	412.83066	-1076.65063	-657.84857	417.51511	-1041.90601				-403.84128	84.79974	-1128.85925	
86	0.850	-485.82208	1570.83606	-1196.83301							-588.46832	1496.39502	-1015.95679	-290.59274	1295.45410	-1101.15674	-635.63617	1322.76819	-1199.92114	-497.28671	1187.85754	-1030.37219				-234.75851	964.06964	-1064.01563	-725.24548	983.28973	-1252.80676	-271.47476	801.15918	-938.88281	-779.10254	810.38623	-1110.91248	-401.01791	834.23102	-1028.54138	-637.77216	838.99707	-1094.93457				-398.55283	412.50830	-1074.06274	-660.20789	421.34476	-1026.79504				-404.45258	84.13151	-1127.73218	
